<?xml version="1.0" encoding="UTF-8" standalone="no"?>
<!DOCTYPE svg PUBLIC "-//W3C//DTD SVG 1.1//EN" "http://www.w3.org/Graphics/SVG/1.1/DTD/svg11.dtd">
<svg xmlns="http://www.w3.org/2000/svg" version="1.1" viewBox="0 0 1200 1140">
<path fill="#000000" d="
  M 985.06 862.94
  Q 993.74 871.34 999.26 878.49
  Q 1009.17 891.35 1004.19 906.69
  Q 1002.48 911.95 999.46 917.42
  Q 996.01 923.67 992.46 926.72
  Q 984.35 933.68 972.56 931.19
  Q 957.65 928.04 944.27 918.97
  Q 917.68 900.97 897.56 876.21
  Q 890.70 867.76 885.53 860.25
  Q 875.74 846.02 867.50 828.00
  Q 859.04 809.50 859.00 790.75
  Q 858.98 778.40 856.33 767.38
  Q 853.56 755.89 848.68 749.05
  Q 841.14 738.47 827.75 735.25
  Q 817.74 732.84 805.45 733.11
  Q 799.90 733.23 795.93 734.89
  Q 791.37 736.79 787.44 739.94
  Q 778.35 747.20 770.96 756.21
  Q 756.48 773.87 744.52 793.33
  Q 724.08 826.59 710.15 862.62
  C 709.89 863.30 710.39 864.02 711.12 864.01
  Q 733.57 863.59 755.26 865.87
  Q 768.71 867.28 778.19 872.56
  Q 788.54 878.33 791.00 891.25
  Q 793.55 904.63 792.96 920.93
  C 792.95 921.21 792.72 921.44 792.44 921.44
  L 454.31 921.44
  C 454.00 921.44 453.69 921.31 453.46 921.09
  Q 444.89 912.73 434.70 906.70
  Q 425.57 901.29 417.38 899.93
  Q 408.51 898.46 398.44 899.94
  Q 387.45 901.55 375.69 905.44
  Q 361.94 909.98 355.05 912.62
  Q 310.92 929.55 267.16 947.42
  Q 267.06 947.46 259.71 950.40
  Q 241.93 957.52 225.29 967.02
  Q 214.95 972.92 205.80 980.52
  Q 195.61 988.98 190.56 1000.06
  Q 185.82 1010.48 189.06 1022.19
  Q 191.85 1032.24 200.51 1042.49
  Q 210.24 1053.99 216.81 1059.94
  Q 224.94 1067.29 230.15 1074.21
  Q 232.88 1077.84 232.86 1080.49
  Q 232.83 1084.75 227.50 1086.50
  Q 221.64 1088.42 215.99 1087.90
  Q 207.95 1087.16 200.25 1084.76
  Q 168.64 1074.93 145.06 1052.19
  Q 136.77 1044.19 130.64 1033.84
  Q 126.29 1026.50 124.23 1018.39
  Q 122.43 1011.33 122.58 1001.96
  Q 122.77 991.14 124.94 978.94
  Q 129.45 953.60 147.69 937.19
  Q 152.84 932.55 159.98 928.00
  Q 165.43 924.53 173.41 920.63
  Q 190.26 912.38 210.69 904.44
  Q 226.88 898.14 246.46 889.02
  Q 256.98 884.13 264.40 880.18
  Q 316.99 852.21 356.85 807.97
  Q 366.10 797.69 369.80 792.74
  Q 380.04 779.04 385.75 761.75
  Q 393.80 737.38 398.41 718.79
  Q 404.75 693.19 411.45 667.69
  Q 417.21 645.76 424.06 624.15
  Q 438.22 579.45 459.25 539.00
  Q 475.68 507.41 498.18 478.15
  Q 556.05 402.89 644.25 368.25
  Q 667.17 359.25 692.54 352.64
  Q 723.81 344.49 755.74 339.46
  Q 774.50 336.51 793.26 333.58
  Q 803.12 332.05 812.18 327.92
  Q 826.37 321.44 832.25 308.27
  Q 835.71 300.53 836.12 288.79
  Q 836.59 275.25 833.25 261.25
  Q 829.78 246.71 827.42 239.27
  Q 819.67 214.88 811.34 190.68
  Q 803.57 168.07 799.44 143.06
  Q 797.70 132.52 797.20 122.65
  Q 796.71 113.02 797.08 107.35
  Q 797.58 99.67 799.75 92.21
  Q 800.90 88.26 803.24 85.04
  Q 805.79 81.53 809.20 80.07
  Q 813.12 78.40 817.44 79.31
  Q 823.98 80.70 830.65 83.76
  Q 831.76 84.27 842.96 90.18
  Q 860.74 99.57 865.31 101.94
  Q 875.40 107.16 886.90 111.41
  Q 900.97 116.60 915.76 117.57
  Q 926.55 118.28 935.67 116.45
  Q 953.32 112.91 967.56 100.81
  Q 974.94 94.54 980.55 88.32
  Q 991.21 76.48 1002.35 65.10
  Q 1010.22 57.06 1019.81 53.56
  Q 1025.50 51.49 1032.51 52.11
  Q 1044.53 53.16 1050.69 63.06
  Q 1053.68 67.87 1055.50 74.25
  Q 1058.12 83.42 1059.44 97.85
  Q 1060.75 112.05 1060.76 112.13
  Q 1065.76 157.57 1075.50 202.25
  Q 1076.30 205.94 1077.06 212.77
  Q 1078.89 229.31 1068.78 242.29
  Q 1065.83 246.07 1062.55 249.56
  Q 1057.24 255.22 1052.35 261.23
  Q 1046.47 268.43 1043.58 273.96
  Q 1036.92 286.71 1036.25 301.50
  Q 1035.29 322.77 1040.88 343.28
  Q 1042.47 349.11 1044.14 354.92
  Q 1051.77 381.37 1052.47 408.76
  Q 1052.78 420.55 1052.26 428.75
  Q 1050.11 462.87 1029.69 490.44
  Q 1024.26 497.76 1015.53 507.03
  Q 1002.28 521.10 989.27 535.40
  Q 980.82 544.70 976.25 550.57
  Q 944.53 591.42 934.89 642.98
  Q 925.08 695.44 929.25 747.50
  Q 930.54 763.58 934.87 781.08
  Q 942.55 812.05 961.60 837.14
  Q 965.69 842.53 972.96 850.38
  Q 980.39 858.42 985.06 862.94
  Z"
/>
</svg>
